<?xml version="1.0" encoding="UTF-8" standalone="no"?>
<!DOCTYPE svg PUBLIC "-//W3C//DTD SVG 1.1//EN" "http://www.w3.org/Graphics/SVG/1.1/DTD/svg11.dtd">
<svg width="100%" height="100%" viewBox="0 0 703 501" version="1.1" xmlns="http://www.w3.org/2000/svg" xmlns:xlink="http://www.w3.org/1999/xlink" xml:space="preserve" style="fill-rule:evenodd;clip-rule:evenodd;stroke-linejoin:round;stroke-miterlimit:2;">
    <g transform="matrix(1.14901,0,0,1,-1091.52,-42.8061)">
        <path d="M1561.19,493.267C1561.19,465.71 1541.72,443.338 1517.74,443.338L993.421,443.338C969.438,443.338 949.967,465.71 949.967,493.267C949.967,520.824 969.438,543.196 993.421,543.196L1517.74,543.196C1541.72,543.196 1561.19,520.824 1561.19,493.267Z"/>
    </g>
    <g transform="matrix(1.14901,0,0,1,-1091.26,-243.621)">
        <path d="M1561.19,493.267C1561.19,465.71 1541.72,443.338 1517.74,443.338L993.421,443.338C969.438,443.338 949.967,465.71 949.967,493.267C949.967,520.824 969.438,543.196 993.421,543.196L1517.74,543.196C1541.72,543.196 1561.19,520.824 1561.19,493.267Z"/>
    </g>
    <g transform="matrix(1.14901,0,0,1,-1091.26,-443.338)">
        <path d="M1561.19,493.267C1561.19,465.71 1541.72,443.338 1517.74,443.338L993.421,443.338C969.438,443.338 949.967,465.71 949.967,493.267C949.967,520.824 969.438,543.196 993.421,543.196L1517.74,543.196C1541.72,543.196 1561.19,520.824 1561.19,493.267Z"/>
    </g>
</svg>
