<?xml version="1.0" encoding="UTF-8" standalone="no"?>
<!DOCTYPE svg PUBLIC "-//W3C//DTD SVG 1.1//EN" "http://www.w3.org/Graphics/SVG/1.1/DTD/svg11.dtd">
<svg width="100%" height="100%" viewBox="0 0 512 512" version="1.1" xmlns="http://www.w3.org/2000/svg" xmlns:xlink="http://www.w3.org/1999/xlink" xml:space="preserve" style="fill-rule:evenodd;clip-rule:evenodd;stroke-linejoin:round;stroke-miterlimit:2;">
    <path d="M252.394,421.079C346.218,419.448 421.773,356.173 421.773,278.47C421.773,225.196 368.198,159.976 315.621,135.478C289.671,101.016 317.891,75.759 328.865,65.979C339.838,56.2 366.42,68.991 381.461,76.802C459.525,117.342 512,192.514 512,278.47C512,405.193 397.943,508.477 256,511.911L256,512C254.799,512 253.6,511.992 252.394,511.977C251.153,511.992 249.92,512 248.684,512L248.684,511.906C110.775,508.372 0,405.129 0,278.47C0,192.514 51.017,117.342 126.912,76.802C141.535,68.991 167.379,56.2 178.047,65.979C188.716,75.759 216.152,101.016 190.923,135.478C139.806,159.976 87.72,225.196 87.72,278.47C87.72,356.173 161.176,419.448 252.394,421.079Z"/>
    <g transform="matrix(1,0,0,1.09254,-1.3312,-4.08409)">
        <path d="M296.653,47.185C296.653,27.321 279.033,11.194 257.331,11.194C235.629,11.194 218.01,27.321 218.01,47.185L218.01,230.641C218.01,250.505 235.629,266.632 257.331,266.632C279.033,266.632 296.653,250.505 296.653,230.641L296.653,47.185Z"/>
    </g>
</svg>
