<?xml version="1.0" encoding="UTF-8" standalone="no"?>
<!DOCTYPE svg PUBLIC "-//W3C//DTD SVG 1.1//EN" "http://www.w3.org/Graphics/SVG/1.1/DTD/svg11.dtd">
<svg width="100%" height="100%" viewBox="0 0 512 512" version="1.1" xmlns="http://www.w3.org/2000/svg" xmlns:xlink="http://www.w3.org/1999/xlink" xml:space="preserve"  style="fill-rule:evenodd;clip-rule:evenodd;stroke-linejoin:round;stroke-miterlimit:2;">
    <g transform="matrix(1,0,0,1,-619.632,-370.515)">
        <path d="M875.632,370.515C1016.92,370.515 1131.63,485.225 1131.63,626.515C1131.63,767.806 1016.92,882.515 875.632,882.515C734.341,882.515 619.632,767.806 619.632,626.515C619.632,485.225 734.341,370.515 875.632,370.515ZM858.513,598.039L858.513,504.181C858.513,494.733 866.184,487.062 875.632,487.062C885.08,487.062 892.75,494.733 892.75,504.181L892.75,590.324C908.675,594.652 920.402,609.225 920.402,626.515C920.402,628.844 920.19,631.123 919.783,633.333L1054.76,711.427C1062.94,716.159 1065.74,726.639 1061.01,734.817C1056.28,742.995 1045.8,745.793 1037.62,741.062L898.547,660.601C893.783,662.793 888.484,664.015 882.902,664.015C862.205,664.015 845.402,647.212 845.402,626.515C845.402,615.128 850.489,604.919 858.513,598.039Z"/>
    </g>
</svg>
