<?xml version="1.0" encoding="UTF-8" standalone="no"?>
<!DOCTYPE svg PUBLIC "-//W3C//DTD SVG 1.1//EN" "http://www.w3.org/Graphics/SVG/1.1/DTD/svg11.dtd">
<svg width="100%" height="100%" viewBox="0 0 512 512" version="1.1" xmlns="http://www.w3.org/2000/svg" xmlns:xlink="http://www.w3.org/1999/xlink" xml:space="preserve" style="fill-rule:evenodd;clip-rule:evenodd;stroke-linejoin:round;stroke-miterlimit:2;">
    <g transform="matrix(3.11053,0,0,2.90089,-2008.07,-1989.58)">
        <path d="M741.384,687.049C732.438,685.452 723.307,685.452 714.36,687.049L710.734,705.514L698.982,691.467C690.49,694.881 682.582,699.776 675.579,705.955L681.048,723.892L664.321,718.027C658.558,725.536 653.992,734.016 650.809,743.122L663.909,755.723L646.688,759.612C645.199,769.205 645.199,778.995 646.688,788.588L663.909,792.477L650.809,805.078C653.992,814.184 658.558,822.664 664.321,830.173L681.048,824.308L675.579,842.245C682.582,848.424 690.49,853.319 698.982,856.733L710.734,842.686L714.36,861.151C723.307,862.748 732.438,862.748 741.384,861.151L745.011,842.686L756.763,856.733C765.255,853.319 773.163,848.424 780.166,842.245L774.696,824.308L791.424,830.173C797.187,822.664 801.752,814.184 804.936,805.078L791.835,792.477L809.057,788.588C810.546,778.995 810.546,769.205 809.057,759.612L791.835,755.723L804.936,743.122C801.752,734.016 797.187,725.536 791.424,718.027L774.696,723.892L780.166,705.955C773.163,699.776 765.255,694.881 756.763,691.467L745.011,705.514L741.384,687.049ZM727.872,739.665C745.597,739.665 759.987,755.095 759.987,774.1C759.987,793.105 745.597,808.535 727.872,808.535C710.148,808.535 695.758,793.105 695.758,774.1C695.758,755.095 710.148,739.665 727.872,739.665Z"/>
    </g>
</svg>
