<?xml version="1.0" encoding="UTF-8" standalone="no"?>
<!DOCTYPE svg PUBLIC "-//W3C//DTD SVG 1.1//EN" "http://www.w3.org/Graphics/SVG/1.1/DTD/svg11.dtd">
<svg width="100%" height="100%" viewBox="0 0 512 512" version="1.1" xmlns="http://www.w3.org/2000/svg" xmlns:xlink="http://www.w3.org/1999/xlink" xml:space="preserve" style="fill-rule:evenodd;clip-rule:evenodd;stroke-linejoin:round;stroke-miterlimit:2;">
    <g transform="matrix(3.11053,0,0,2.90089,-2008.07,-1989.58)">
        <path d="M740.321,686.866C732.07,685.513 723.675,685.513 715.423,686.866L715.423,710.081C713.185,710.582 710.974,711.217 708.801,711.984L697.976,691.879C690.199,695.131 682.929,699.632 676.414,705.228L687.239,725.332C685.534,726.966 683.915,728.702 682.392,730.53L663.642,718.923C658.423,725.908 654.225,733.704 651.193,742.043L669.943,753.651C669.228,755.98 668.635,758.351 668.168,760.751L646.518,760.751C645.256,769.599 645.256,778.601 646.518,787.449L668.168,787.449C668.635,789.849 669.228,792.22 669.943,794.549L651.193,806.157C654.225,814.496 658.423,822.292 663.642,829.277L682.392,817.67C683.915,819.498 685.534,821.234 687.239,822.868L676.414,842.972C682.929,848.568 690.199,853.069 697.976,856.321L708.801,836.216C710.974,836.983 713.185,837.618 715.423,838.119L715.423,861.334C723.675,862.687 732.07,862.687 740.321,861.334L740.321,838.119C742.56,837.618 744.771,836.983 746.943,836.216L757.768,856.321C765.545,853.069 772.816,848.568 779.33,842.972L768.505,822.868C770.211,821.234 771.829,819.498 773.353,817.67L792.102,829.277C797.322,822.292 801.519,814.496 804.551,806.157L785.802,794.549C786.517,792.22 787.109,789.849 787.576,787.449L809.226,787.449C810.489,778.601 810.489,769.599 809.226,760.751L787.576,760.751C787.109,758.351 786.517,755.98 785.802,753.651L804.551,742.043C801.519,733.704 797.322,725.908 792.102,718.923L773.353,730.53C771.829,728.702 770.211,726.966 768.505,725.332L779.33,705.228C772.816,699.632 765.545,695.131 757.768,691.879L746.943,711.984C744.771,711.217 742.56,710.582 740.321,710.081L740.321,686.866ZM727.872,735.477C747.752,735.477 763.892,752.783 763.892,774.1C763.892,795.417 747.752,812.723 727.872,812.723C707.992,812.723 691.853,795.417 691.853,774.1C691.853,752.783 707.992,735.477 727.872,735.477Z"/>
    </g>
</svg>
